HIERARCHY
ROOT root
{
  OFFSET 0 93.2929 0
  CHANNELS 6 Xposition Yposition Zposition Zrotation Xrotation Yrotation
  JOINT torso_1
  {
    OFFSET 0 5.07867 -1.15138
    CHANNELS 6 Xposition Yposition Zposition Zrotation Xrotation Yrotation
    JOINT torso_2
    {
      OFFSET 0 5.61661 1.07143
      CHANNELS 6 Xposition Yposition Zposition Zrotation Xrotation Yrotation
      JOINT torso_3
      {
        OFFSET -1.02604e-17 5.98978 0.11501
        CHANNELS 6 Xposition Yposition Zposition Zrotation Xrotation Yrotation
        JOINT torso_4
        {
          OFFSET -1.10457e-17 6.50583 -0.443523
          CHANNELS 6 Xposition Yposition Zposition Zrotation Xrotation Yrotation
          JOINT torso_5
          {
            OFFSET -1.97295e-17 7.60548 -1.50593
            CHANNELS 6 Xposition Yposition Zposition Zrotation Xrotation Yrotation
            JOINT torso_6
            {
              OFFSET -2.53307e-17 9.49737 -0.914492
              CHANNELS 6 Xposition Yposition Zposition Zrotation Xrotation Yrotation
              JOINT torso_7
              {
                OFFSET -2.90401e-17 10.5513 1.57691
                CHANNELS 6 Xposition Yposition Zposition Zrotation Xrotation Yrotation
                JOINT neck_1
                {
                  OFFSET -1.29193e-17 4.78644 0.715339
                  CHANNELS 6 Xposition Yposition Zposition Zrotation Xrotation Yrotation
                  JOINT neck_2
                  {
                    OFFSET -1.8116e-17 4.82109 0.421791
                    CHANNELS 6 Xposition Yposition Zposition Zrotation Xrotation Yrotation
                    JOINT head
                    {
                      OFFSET -2.00958e-17 4.83041 0.765062
                      CHANNELS 6 Xposition Yposition Zposition Zrotation Xrotation Yrotation
                      End Site
                      {
                        OFFSET 0 0.1 0
                      }
                    }
                  }
                }
                JOINT l_shoulder
                {
                  OFFSET 1.23299 -7.60731 7.53374
                  CHANNELS 6 Xposition Yposition Zposition Zrotation Xrotation Yrotation
                  JOINT l_up_arm
                  {
                    OFFSET 12.9547 3.2495 -3.26872
                    CHANNELS 6 Xposition Yposition Zposition Zrotation Xrotation Yrotation
                    JOINT l_low_arm
                    {
                      OFFSET 29.2081 0.0598081 0.137039
                      CHANNELS 6 Xposition Yposition Zposition Zrotation Xrotation Yrotation
                      JOINT l_hand
                      {
                        OFFSET 24.234 0.0496219 0.113701
                        CHANNELS 6 Xposition Yposition Zposition Zrotation Xrotation Yrotation
                        End Site
                        {
                          OFFSET 0.1 0 0
                        }
                      }
                    }
                  }
                }
                JOINT r_shoulder
                {
                  OFFSET -1.23299 -7.60729 7.53365
                  CHANNELS 6 Xposition Yposition Zposition Zrotation Xrotation Yrotation
                  JOINT r_up_arm
                  {
                    OFFSET -12.9547 3.2495 -3.26872
                    CHANNELS 6 Xposition Yposition Zposition Zrotation Xrotation Yrotation
                    JOINT r_low_arm
                    {
                      OFFSET -29.2081 0.0598081 0.137039
                      CHANNELS 6 Xposition Yposition Zposition Zrotation Xrotation Yrotation
                      JOINT r_hand
                      {
                        OFFSET -24.234 0.0496218 0.113702
                        CHANNELS 6 Xposition Yposition Zposition Zrotation Xrotation Yrotation
                        End Site
                        {
                          OFFSET -0.1 0 0
                        }
                      }
                    }
                  }
                }
              }
            }
          }
        }
      }
    }
  }
  JOINT l_up_leg
  {
    OFFSET 9.23673 -4.20556 2.0327
    CHANNELS 6 Xposition Yposition Zposition Zrotation Xrotation Yrotation
    JOINT l_low_leg
    {
      OFFSET -0.852353 -38.7721 -0.655187
      CHANNELS 6 Xposition Yposition Zposition Zrotation Xrotation Yrotation
      JOINT l_foot
      {
        OFFSET -2.32622 -40.4017 -6.04875
        CHANNELS 6 Xposition Yposition Zposition Zrotation Xrotation Yrotation
        JOINT l_toes
        {
          OFFSET 0.779096 -9.8844 12.4959
          CHANNELS 6 Xposition Yposition Zposition Zrotation Xrotation Yrotation
          End Site
          {
            OFFSET 0 0 0.1
          }
        }
      }
    }
  }
  JOINT r_up_leg
  {
    OFFSET -9.23673 -4.20556 2.0327
    CHANNELS 6 Xposition Yposition Zposition Zrotation Xrotation Yrotation
    JOINT r_low_leg
    {
      OFFSET 0.852353 -38.7721 -0.655187
      CHANNELS 6 Xposition Yposition Zposition Zrotation Xrotation Yrotation
      JOINT r_foot
      {
        OFFSET 2.32622 -40.4017 -6.04875
        CHANNELS 6 Xposition Yposition Zposition Zrotation Xrotation Yrotation
        JOINT r_toes
        {
          OFFSET -0.779096 -9.8844 12.4959
          CHANNELS 6 Xposition Yposition Zposition Zrotation Xrotation Yrotation
          End Site
          {
            OFFSET 0 0 0.1
          }
        }
      }
    }
  }
}
MOTION
Frames: 5
Frame Time: 0.016667
0 93.2929 0 -0 0 -0 0 5.07867 -1.15138 -0 0 -0 0 5.61661 1.07143 -0 0 -0 -1.02604e-17 5.98978 0.11501 -0 0 -0 -1.10457e-17 6.50583 -0.443523 -0 0 -0 -1.97295e-17 7.60548 -1.50593 -0 0 -0 -2.53307e-17 9.49737 -0.914492 -0 0 -0 -2.90401e-17 10.5513 1.57691 -0 0 -0 -1.29193e-17 4.78644 0.715339 -0 0 -0 -1.8116e-17 4.82109 0.421791 -0 0 -0 -2.00958e-17 4.83041 0.765062 -0 0 -0 1.23299 -7.60731 7.53374 -0 0 -0 12.9547 3.2495 -3.26872 -0 0 -0 29.2081 0.0598081 0.137039 -0 0 -0 24.234 0.0496219 0.113701 -0 0 -0 -1.23299 -7.60729 7.53365 -0 0 -0 -12.9547 3.2495 -3.26872 -0 0 -0 -29.2081 0.0598081 0.137039 -0 0 -0 -24.234 0.0496218 0.113702 -0 0 -0 9.23673 -4.20556 2.0327 -0 0 -0 -0.852353 -38.7721 -0.655187 -0 0 -0 -2.32622 -40.4017 -6.04875 -0 0 -0 0.779096 -9.8844 12.4959 -0 0 -0 -9.23673 -4.20556 2.0327 -0 0 -0 0.852353 -38.7721 -0.655187 -0 0 -0 2.32622 -40.4017 -6.04875 -0 0 -0 -0.779096 -9.8844 12.4959 -0 0 -0 
-179.724 92.7065 -1159.28 -0.478193 -3.65372 -8.14335 0 5.07867 -1.15138 -0.118348 0.319433 0.520647 0 5.61661 1.07143 -0.113996 0.945868 0.517301 -1.02604e-17 5.98978 0.11501 -0.119649 2.01386 0.635086 -1.10457e-17 6.50583 -0.443523 -0.143487 3.38838 0.646866 -1.97295e-17 7.60548 -1.50593 -0.00771693 3.82363 0.6821 -2.53307e-17 9.49737 -0.914492 0.272683 4.05518 0.486223 -2.90401e-17 10.5513 1.57691 0.0962037 0.510146 -0.234659 -1.29193e-17 4.78644 0.715339 0.220086 2.45669 0.0490692 -1.8116e-17 4.82109 0.421791 0.365421 -1.30057 -0.131517 -2.00958e-17 4.83041 0.765062 -0.0472576 -0.208819 2.97334 1.23299 -7.60731 7.53374 -3.08363 2.82763 -3.8818 12.9547 3.2495 -3.26872 -72.74 26.6275 -11.7722 29.2081 0.0598081 0.137039 2.39221 -0.230593 -11.6025 24.234 0.0496219 0.113701 -1.5964 -44.0926 -2.42527 -1.23299 -7.60729 7.53365 -3.4276 -1.5696 0.969512 -12.9547 3.2495 -3.26872 68.4792 24.5649 12.7181 -29.2081 0.0598081 0.137039 -12.0319 -12.1831 91.3146 -24.234 0.0496218 0.113702 16.2005 -69.1199 15.2888 9.23673 -4.20556 2.0327 4.71045 3.33875 -9.409 -0.852353 -38.7721 -0.655187 0.12044 -0.449289 0.00831479 -2.32622 -40.4017 -6.04875 -2.86765 -1.6227 15.7232 0.779096 -9.8844 12.4959 -1.38404e-17 -6.73482e-16 -1.9206e-16 -9.23673 -4.20556 2.0327 -1.51147 -1.5906 16.8988 0.852353 -38.7721 -0.655187 0.189333 0.706759 0.0111691 2.32622 -40.4017 -6.04875 0.102208 0.982158 -15.0202 -0.779096 -9.8844 12.4959 -5.3526e-16 -3.88686e-16 -1.25815e-14 
-179.715 92.7071 -1159.28 -0.473802 -3.66928 -8.14631 0 5.07867 -1.15138 -0.125036 0.338839 0.520528 0 5.61661 1.07143 -0.118783 0.958331 0.516153 -1.02604e-17 5.98978 0.11501 -0.12259 2.01867 0.634132 -1.10457e-17 6.50583 -0.443523 -0.144483 3.38048 0.645962 -1.97295e-17 7.60548 -1.50593 -0.00689265 3.80845 0.681212 -2.53307e-17 9.49737 -0.914492 0.275187 4.03579 0.484222 -2.90401e-17 10.5513 1.57691 0.0964066 0.512143 -0.23458 -1.29193e-17 4.78644 0.715339 0.223326 2.47642 0.038216 -1.8116e-17 4.82109 0.421791 0.380222 -1.27993 -0.136402 -2.00958e-17 4.83041 0.765062 -0.0222594 -0.180205 2.97713 1.23299 -7.60731 7.53374 -3.08096 2.83825 -3.87789 12.9547 3.2495 -3.26872 -72.7723 26.6112 -11.7173 29.2081 0.0598081 0.137039 2.39564 -0.231279 -11.6194 24.234 0.0496219 0.113701 -1.59167 -44.0948 -2.43197 -1.23299 -7.60729 7.53365 -3.44402 -1.56284 0.962811 -12.9547 3.2495 -3.26872 68.5161 24.5748 12.6957 -29.2081 0.0598081 0.137039 -12.0316 -12.1985 91.3887 -24.234 0.0496218 0.113702 16.2095 -69.1149 15.3013 9.23673 -4.20556 2.0327 4.69546 3.33767 -9.4247 -0.852353 -38.7721 -0.655187 0.113459 -0.423255 0.00780719 -2.32622 -40.4017 -6.04875 -2.85498 -1.62174 15.7234 0.779096 -9.8844 12.4959 -6.76456e-16 -7.0211e-16 -1.61e-16 -9.23673 -4.20556 2.0327 -1.52969 -1.58825 16.9156 0.852353 -38.7721 -0.655187 0.196721 0.734348 0.0115577 2.32622 -40.4017 -6.04875 0.128639 0.963806 -15.0233 -0.779096 -9.8844 12.4959 -2.03953e-16 -4.03e-16 -1.25918e-14 
-179.705 92.7066 -1159.27 -0.473783 -3.66935 -8.14632 0 5.07867 -1.15138 -0.127598 0.349437 0.520569 0 5.61661 1.07143 -0.120277 0.96513 0.515859 -1.02604e-17 5.98978 0.11501 -0.123148 2.02101 0.634069 -1.10457e-17 6.50583 -0.443523 -0.143983 3.37564 0.646008 -1.97295e-17 7.60548 -1.50593 -0.00536593 3.79933 0.681131 -2.53307e-17 9.49737 -0.914492 0.277657 4.02406 0.483102 -2.90401e-17 10.5513 1.57691 0.0967015 0.513245 -0.234447 -1.29193e-17 4.78644 0.715339 0.225488 2.50025 0.0232511 -1.8116e-17 4.82109 0.421791 0.394992 -1.25988 -0.143277 -2.00958e-17 4.83041 0.765062 -0.00532221 -0.165027 2.97448 1.23299 -7.60731 7.53374 -3.0688 2.84199 -3.86957 12.9547 3.2495 -3.26872 -72.8002 26.6108 -11.6744 29.2081 0.0598081 0.137039 2.39796 -0.231743 -11.6307 24.234 0.0496219 0.113701 -1.61638 -44.1331 -2.44455 -1.23299 -7.60729 7.53365 -3.45537 -1.5597 0.956057 -12.9547 3.2495 -3.26872 68.5415 24.5853 12.6808 -29.2081 0.0598081 0.137039 -12.0312 -12.2155 91.4707 -24.234 0.0496218 0.113702 16.2893 -69.161 15.3868 9.23673 -4.20556 2.0327 4.68791 3.32162 -9.44701 -0.852353 -38.7721 -0.655187 0.105854 -0.39489 0.00725776 -2.32622 -40.4017 -6.04875 -2.83721 -1.63114 15.7222 0.779096 -9.8844 12.4959 -1.94329e-17 -6.73724e-16 -1.91798e-16 -9.23673 -4.20556 2.0327 -1.53694 -1.59743 16.9191 0.852353 -38.7721 -0.655187 0.202823 0.757133 0.011876 2.32622 -40.4017 -6.04875 0.129769 0.952254 -15.0248 -0.779096 -9.8844 12.4959 -5.32464e-16 -3.88807e-16 -1.25816e-14 
-179.695 92.7059 -1159.27 -0.473783 -3.66935 -8.14632 0 5.07867 -1.15138 -0.130537 0.362656 0.520731 0 5.61661 1.07143 -0.122029 0.973183 0.515654 -1.02604e-17 5.98978 0.11501 -0.123887 2.02309 0.634116 -1.10457e-17 6.50583 -0.443523 -0.143611 3.36776 0.64614 -1.97295e-17 7.60548 -1.50593 -0.0038109 3.78589 0.68116 -2.53307e-17 9.49737 -0.914492 0.280319 4.00731 0.48211 -2.90401e-17 10.5513 1.57691 0.0971047 0.514957 -0.23419 -1.29193e-17 4.78644 0.715339 0.227426 2.51765 0.00165569 -1.8116e-17 4.82109 0.421791 0.407954 -1.23663 -0.153258 -2.00958e-17 4.83041 0.765062 0.0125294 -0.13833 2.97019 1.23299 -7.60731 7.53374 -3.06117 2.85091 -3.86448 12.9547 3.2495 -3.26872 -72.8272 26.6307 -11.6233 29.2081 0.0598081 0.137039 2.4008 -0.232313 -11.6447 24.234 0.0496219 0.113701 -1.64999 -44.2074 -2.48781 -1.23299 -7.60729 7.53365 -3.46629 -1.55225 0.952183 -12.9547 3.2495 -3.26872 68.5641 24.5983 12.6605 -29.2081 0.0598081 0.137039 -12.0309 -12.2306 91.5435 -24.234 0.0496218 0.113702 16.3866 -69.2293 15.4864 9.23673 -4.20556 2.0327 4.67934 3.30727 -9.46428 -0.852353 -38.7721 -0.655187 0.0990282 -0.369434 0.00676788 -2.32622 -40.4017 -6.04875 -2.81753 -1.64033 15.7211 0.779096 -9.8844 12.4959 -4.1141e-16 -6.90659e-16 -1.73424e-16 -9.23673 -4.20556 2.0327 -1.54524 -1.59939 16.9175 0.852353 -38.7721 -0.655187 0.205488 0.767085 0.0120143 2.32622 -40.4017 -6.04875 0.137506 0.941072 -15.0264 -0.779096 -9.8844 12.4959 -3.36476e-16 -3.97275e-16 -1.25877e-14 
